<!DOCTYPE svg PUBLIC "-//W3C//DTD SVG 1.1//EN" "http://www.w3.org/Graphics/SVG/1.1/DTD/svg11.dtd">
<!-- Uploaded to: SVG Repo, www.svgrepo.com, Transformed by: SVG Repo Mixer Tools -->
<svg fill="#001247" width="800px" height="800px" viewBox="-51.2 -51.2 358.40 358.40" id="Flat" xmlns="http://www.w3.org/2000/svg" stroke="#001247" stroke-width="0.00256">
<g id="SVGRepo_bgCarrier" stroke-width="0" transform="translate(0,0), scale(1)">
<path transform="translate(-51.2, -51.2), scale(22.4)" fill="#e8e8e8" d="M9.166.33a2.25 2.25 0 00-2.332 0l-5.25 3.182A2.25 2.25 0 00.5 5.436v5.128a2.25 2.25 0 001.084 1.924l5.25 3.182a2.25 2.25 0 002.332 0l5.25-3.182a2.25 2.25 0 001.084-1.924V5.436a2.25 2.25 0 00-1.084-1.924L9.166.33z" strokewidth="0"/>
</g>
<g id="SVGRepo_tracerCarrier" stroke-linecap="round" stroke-linejoin="round" stroke="#CCCCCC" stroke-width="1.536"/>
<g id="SVGRepo_iconCarrier"> <path d="M100,216a20,20,0,1,1-20-20A19.9999,19.9999,0,0,1,100,216Zm84-20a20,20,0,1,0,20,20A19.9999,19.9999,0,0,0,184,196ZM233.252,75.29639l-24.1123,84.3955A28.12,28.12,0,0,1,182.2168,180H81.7832a28.12029,28.12029,0,0,1-26.92285-20.30713L30.81445,75.53271c-.04687-.15234-.09082-.30517-.13183-.46044L21.80566,44H12a12,12,0,0,1,0-24H24.82227A20.08558,20.08558,0,0,1,44.05273,34.50537L51.33691,60h170.377A11.99959,11.99959,0,0,1,233.252,75.29639ZM205.80566,84H58.19434l19.74218,69.09863A4.01838,4.01838,0,0,0,81.7832,156H182.2168a4.01824,4.01824,0,0,0,3.84668-2.90186Z"/> </g>
</svg>